HIERARCHY
ROOT hip
{
  OFFSET 0 0 0
  CHANNELS 6 Xposition Yposition Zposition Zrotation Yrotation Xrotation
  JOINT abdomen
  {
    OFFSET 0 20.6881 -0.73152
    CHANNELS 3 Zrotation Xrotation Yrotation
    JOINT chest
    {
      OFFSET 0 11.7043 -0.48768
      CHANNELS 3 Zrotation Xrotation Yrotation
      JOINT neck
      {
        OFFSET 0 22.1894 -2.19456
        CHANNELS 3 Zrotation Xrotation Yrotation
        JOINT head
        {
          OFFSET -0.24384 7.07133 1.2192
          CHANNELS 3 Zrotation Xrotation Yrotation
          JOINT leftEye
          {
            OFFSET 4.14528 8.04674 8.04672
            CHANNELS 3 Zrotation Xrotation Yrotation
            End Site
            {
              OFFSET 1 0 0
            }
          }
          JOINT rightEye
          {
            OFFSET -3.6576 8.04674 8.04672
            CHANNELS 3 Zrotation Xrotation Yrotation
            End Site
            {
              OFFSET 1 0 0
            }
          }
        }
      }
      JOINT rCollar
      {
        OFFSET -2.68224 19.2634 -4.8768
        CHANNELS 3 Zrotation Xrotation Yrotation
        JOINT rShldr
        {
          OFFSET -8.77824 -1.95073 1.46304
          CHANNELS 3 Zrotation Xrotation Yrotation
          JOINT rForeArm
          {
            OFFSET -28.1742 -1.7115 0.48768
            CHANNELS 3 Zrotation Xrotation Yrotation
            JOINT rHand
            {
              OFFSET -22.5879 0.773209 7.07136
              CHANNELS 3 Zrotation Xrotation Yrotation
              JOINT rThumb1
              {
                OFFSET -1.2192 -0.487915 3.41376
                CHANNELS 3 Zrotation Xrotation Yrotation
                JOINT rThumb2
                {
                  OFFSET -3.37035 -0.52449 3.41376
                  CHANNELS 3 Zrotation Xrotation Yrotation
                  End Site
                  {
                    OFFSET -1.78271 -1.18214 1.43049
                  }
                }
              }
              JOINT rIndex1
              {
                OFFSET -7.75947 0.938293 5.60832
                CHANNELS 3 Zrotation Xrotation Yrotation
                JOINT rIndex2
                {
                  OFFSET -2.54057 -0.884171 1.56538
                  CHANNELS 3 Zrotation Xrotation Yrotation
                  End Site
                  {
                    OFFSET -1.62519 -0.234802 1.16502
                  }
                }
              }
              JOINT rMid1
              {
                OFFSET -8.24714 1.18213 3.41376
                CHANNELS 3 Zrotation Xrotation Yrotation
                JOINT rMid2
                {
                  OFFSET -3.10165 -0.590103 1.0647
                  CHANNELS 3 Zrotation Xrotation Yrotation
                  End Site
                  {
                    OFFSET -2.48547 -0.328903 0.83742
                  }
                }
              }
              JOINT rRing1
              {
                OFFSET -8.82822 0.546677 1.51678
                CHANNELS 3 Zrotation Xrotation Yrotation
                JOINT rRing2
                {
                  OFFSET -2.60934 -0.819778 -0.0198488
                  CHANNELS 3 Zrotation Xrotation Yrotation
                  End Site
                  {
                    OFFSET -2.33842 -0.294052 0.168128
                  }
                }
              }
              JOINT rPinky1
              {
                OFFSET -8.27202 -0.0477905 -0.4584
                CHANNELS 3 Zrotation Xrotation Yrotation
                JOINT rPinky2
                {
                  OFFSET -1.82734 -0.647385 -0.700984
                  CHANNELS 3 Zrotation Xrotation Yrotation
                  End Site
                  {
                    OFFSET -1.69225 -0.51767 -0.607171
                  }
                }
              }
            }
          }
        }
      }
      JOINT lCollar
      {
        OFFSET 2.68224 19.2634 -4.8768
        CHANNELS 3 Zrotation Xrotation Yrotation
        JOINT lShldr
        {
          OFFSET 8.77824 -1.95073 1.46304
          CHANNELS 3 Zrotation Xrotation Yrotation
          JOINT lForeArm
          {
            OFFSET 28.1742 -1.7115 0.48768
            CHANNELS 3 Zrotation Xrotation Yrotation
            JOINT lHand
            {
              OFFSET 22.5879 0.773209 7.07136
              CHANNELS 3 Zrotation Xrotation Yrotation
              JOINT lThumb1
              {
                OFFSET 1.2192 -0.487915 3.41376
                CHANNELS 3 Zrotation Xrotation Yrotation
                JOINT lThumb2
                {
                  OFFSET 3.37035 -0.52449 3.41376
                  CHANNELS 3 Zrotation Xrotation Yrotation
                  End Site
                  {
                    OFFSET 1.78271 -1.18214 1.43049
                  }
                }
              }
              JOINT lIndex1
              {
                OFFSET 7.75947 0.938293 5.60832
                CHANNELS 3 Zrotation Xrotation Yrotation
                JOINT lIndex2
                {
                  OFFSET 2.54057 -0.884171 1.56538
                  CHANNELS 3 Zrotation Xrotation Yrotation
                  End Site
                  {
                    OFFSET 1.62519 -0.234802 1.16502
                  }
                }
              }
              JOINT lMid1
              {
                OFFSET 8.24714 1.18213 3.41376
                CHANNELS 3 Zrotation Xrotation Yrotation
                JOINT lMid2
                {
                  OFFSET 3.10165 -0.590103 1.0647
                  CHANNELS 3 Zrotation Xrotation Yrotation
                  End Site
                  {
                    OFFSET 2.48547 -0.328903 0.83742
                  }
                }
              }
              JOINT lRing1
              {
                OFFSET 8.82822 0.546677 1.51678
                CHANNELS 3 Zrotation Xrotation Yrotation
                JOINT lRing2
                {
                  OFFSET 2.60934 -0.819778 -0.0198488
                  CHANNELS 3 Zrotation Xrotation Yrotation
                  End Site
                  {
                    OFFSET 2.33842 -0.294052 0.168128
                  }
                }
              }
              JOINT lPinky1
              {
                OFFSET 8.27202 -0.0477905 -0.4584
                CHANNELS 3 Zrotation Xrotation Yrotation
                JOINT lPinky2
                {
                  OFFSET 1.82734 -0.647385 -0.700984
                  CHANNELS 3 Zrotation Xrotation Yrotation
                  End Site
                  {
                    OFFSET 1.69225 -0.51767 -0.607171
                  }
                }
              }
            }
          }
        }
      }
    }
  }
  JOINT rButtock
  {
    OFFSET -8.77824 4.35084 1.2192
    CHANNELS 3 Zrotation Xrotation Yrotation
    JOINT rThigh
    {
      OFFSET 0 -1.70687 -2.19456
      CHANNELS 3 Zrotation Xrotation Yrotation
      JOINT rShin
      {
        OFFSET 0 -36.8199 0.73152
        CHANNELS 3 Zrotation Xrotation Yrotation
        JOINT rFoot
        {
          OFFSET 0.73152 -45.1104 -5.12064
          CHANNELS 3 Zrotation Xrotation Yrotation
          End Site
          {
            OFFSET -1.1221 -3.69964 12.103
          }
        }
      }
    }
  }
  JOINT lButtock
  {
    OFFSET 8.77824 4.35084 1.2192
    CHANNELS 3 Zrotation Xrotation Yrotation
    JOINT lThigh
    {
      OFFSET 0 -1.70687 -2.19456
      CHANNELS 3 Zrotation Xrotation Yrotation
      JOINT lShin
      {
        OFFSET 0 -36.8199 0.73152
        CHANNELS 3 Zrotation Xrotation Yrotation
        JOINT lFoot
        {
          OFFSET -0.73152 -45.1104 -5.12064
          CHANNELS 3 Zrotation Xrotation Yrotation
          End Site
          {
            OFFSET 1.1221 -3.69964 12.103
          }
        }
      }
    }
  }
}
MOTION
Frames:	6
Frame Time:	0.00833333
0.0 0.0 0.0 0.0 0.0 0.0 0.0 0.0 0.0 0.0 0.0 0.0 0.0 0.0 0.0 0.0 0.0 0.0 0.0 0.0 0.0 0.0 0.0 0.0 0.0 0.0 0.0 0.0 0.0 0.0 0.0 0.0 0.0 0.0 0.0 0.0 0.0 0.0 0.0 0.0 0.0 0.0 0.0 0.0 0.0 0.0 0.0 0.0 0.0 0.0 0.0 0.0 0.0 0.0 0.0 0.0 0.0 0.0 0.0 0.0 0.0 0.0 0.0 0.0 0.0 0.0 0.0 0.0 0.0 0.0 0.0 0.0 0.0 0.0 0.0 0.0 0.0 0.0 0.0 0.0 0.0 0.0 0.0 0.0 0.0 0.0 0.0 0.0 0.0 0.0 0.0 0.0 0.0 0.0 0.0 0.0 0.0 0.0 0.0 0.0 0.0 0.0 0.0 0.0 0.0 0.0 0.0 0.0 0.0 0.0 0.0 0.0 0.0 0.0 0.0 0.0 0.0 0.0 0.0 0.0 0.0 0.0 0.0 0.0 0.0 0.0 0.0 0.0 0.0 0.0 0.0 0.0
132.986 83.6045 -12.0 -0.0 0.0 -0.0 -0.0 0.0 -0.0 0.0 -0.0 -0.0 9.579663 3.263211 60.169506 -7.606876 6.687135 -59.997951 -0.0 -0.0 0.0 -0.0 -0.0 0.0 -142.973735 39.431617 147.390037 -152.008011 -2.527094 170.966195 0.381449 40.748387 2.25141 -1.851296 5.928237 -0.107184 -89.136032 38.427358 50.299234 -157.340833 -33.11615 80.310249 88.792192 -75.499035 40.049684 91.189283 -55.710736 34.087023 -160.673322 -6.667841 143.245105 -159.950334 -4.480616 143.00716 -0.006679 3.473835 1.091901 -163.482207 25.631507 168.596431 -25.537984 -38.087442 -24.598474 -1.43463 -8.667221 -1.402619 -0.163072 -0.990049 0.218539 0.540347 13.994801 -1.064061 -172.790913 1.164545 -146.924035 179.544485 13.8946 -145.17803 -51.059793 -41.203951 -12.856726 4.193385 -63.612175 41.580327 77.667448 43.02965 -64.538509 3.859409 20.315471 9.643035 -0.541241 -1.589941 0.294737 -91.374318 -78.523572 -65.496386 -0.004875 1.770451 -0.556181 6.936839 44.901405 -8.478118 124.851156 -29.038378 122.621388 153.163527 42.445734 149.366876 -0.0 0.0 -0.0 0.0 -0.0 0.0 -0.754531 12.802744 -157.022067 89.732874 -10.880295 -170.399145 -0.0 0.0 -0.0 0.0 -0.0 0.0 -0.73466 -0.06315 -6.434459 -123.345198 -36.267619 2.768499
133.006 83.5493 -11.5208 -0.0 0.0 0.0 0.0 -4.771896 -180.0 -0.0 -4.771896 180.0 11.359575 6.157081 79.425429 -8.145262 10.039281 -79.321748 0.0 -0.0 -0.0 0.0 -0.0 -0.0 -142.973735 39.431617 147.390037 -119.398424 70.349442 142.589795 22.38786 6.133141 -21.094633 -153.52178 60.137162 129.720727 83.25393 -50.258079 33.616048 -15.94523 -36.457779 -28.149866 -179.421156 -58.426425 117.044829 -67.211631 50.271963 61.501999 2.100045 -6.305437 -1.081362 -113.975945 59.965107 101.286262 -145.119721 0.310087 -179.225753 22.081997 24.280946 -6.293083 3.654579 10.395436 3.321956 -163.795227 58.084936 -149.165875 143.620413 38.233348 -148.080496 -23.165507 -12.553998 -6.904429 97.187569 -80.097119 106.408849 -9.690628 -27.569962 -3.354407 -27.451228 -26.099095 -2.267476 42.675999 32.095883 -24.413379 -52.739092 -67.699982 -9.659929 -10.465909 6.134519 -5.754432 160.673322 -6.667841 -143.245105 -5.719579 2.143301 -0.585185 114.669357 66.731663 -135.092548 121.544018 -62.834101 140.839119 5.648164 -12.860949 5.301603 -0.500574 0.296032 -0.683716 0.0 0.0 -0.0 -0.0 -2.27635 180.0 -4.055723 -2.993391 -143.675094 -125.735884 6.510295 44.447439 0.0 0.0 -0.0 -0.0 -2.27635 180.0 4.746839 -3.419817 136.635003 -24.475232 -34.18372 49.738492
133.045 83.4952 -11.0069 -0.0 0.0 0.0 0.0 -4.771896 -180.0 -0.0 -4.771896 180.0 11.359575 6.157081 79.425429 -8.145262 10.039281 -79.321748 0.0 -0.0 -0.0 0.0 -0.0 -0.0 -142.973735 39.431617 147.390037 -119.398424 70.349442 142.589795 22.38786 6.133141 -21.094633 -153.52178 60.137162 129.720727 83.25393 -50.258079 33.616048 -15.94523 -36.457779 -28.149866 -179.421156 -58.426425 117.044829 -67.211631 50.271963 61.501999 2.100045 -6.305437 -1.081362 -113.975945 59.965107 101.286262 -145.119721 0.310087 -179.225753 22.081997 24.280946 -6.293083 3.654579 10.395436 3.321956 -163.795227 58.084936 -149.165875 143.620413 38.233348 -148.080496 -23.165507 -12.553998 -6.904429 97.187569 -80.097119 106.408849 -9.690628 -27.569962 -3.354407 -27.451228 -26.099095 -2.267476 42.675999 32.095883 -24.413379 -52.739092 -67.699982 -9.659929 -10.465909 6.134519 -5.754432 160.673322 -6.667841 -143.245105 -5.719579 2.143301 -0.585185 114.669357 66.731663 -135.092548 121.544018 -62.834101 140.839119 5.648164 -12.860949 5.301603 -0.500574 0.296032 -0.683716 0.0 0.0 -0.0 -0.0 -2.27635 180.0 -4.055723 -2.993391 -143.675094 -125.735884 6.510295 44.447439 0.0 0.0 -0.0 -0.0 -2.27635 180.0 4.746839 -3.419817 136.635003 -24.475232 -34.18372 49.738492
133.086 83.4646 -10.4679 -0.0 0.0 0.0 0.0 -4.771896 -180.0 -0.0 -4.771896 180.0 -7.417427 6.176288 -56.922404 9.210072 2.862964 57.092487 -0.0 -0.0 0.0 -0.0 -0.0 0.0 -155.504155 -3.514523 161.838528 27.143929 -27.3322 16.571891 1.811599 1.595471 -33.22342 166.620234 -27.023806 142.004561 6.669134 -6.658679 -0.643141 -133.095528 -29.091281 119.037023 -27.421557 30.63922 20.098782 103.215393 -68.747328 59.531712 2.100045 -6.305437 -1.081362 -131.56626 52.226065 117.519521 0.000474 0.063839 0.020056 -1.75837 18.36066 2.604673 7.928213 24.811638 7.002569 -45.98267 -49.770125 -43.736985 155.417258 -2.951435 -161.718542 -23.225838 -15.36645 -15.781419 -4.572261 -1.504452 33.586365 -169.999886 -18.355795 -143.613822 85.829417 38.630721 -47.955432 50.509774 -1.47663 -46.339597 -1.33926 -2.205119 0.73873 176.844595 -18.769206 -108.771395 39.289155 53.36602 -32.877985 -3.7341 -6.015114 3.366208 77.742735 72.902851 -95.870145 147.53186 -40.592137 163.254494 -8.368306 26.426704 -7.36241 78.065817 -53.614042 75.041512 -0.0 0.0 -0.0 -0.0 -2.27635 180.0 4.573604 -5.158218 131.753464 -2.312363 -5.916718 51.4023 -0.0 0.0 -0.0 -0.0 -2.27635 180.0 0.8711 -15.292348 -8.675706 -69.058001 2.432886 176.091171
133.161 83.4633 -9.93069 -0.0 0.0 -0.0 -0.0 0.0 -0.0 0.0 0.0 -0.0 -8.063956 8.6533 -71.432562 10.752387 4.907224 71.581577 -0.0 -0.0 0.0 -0.0 -0.0 0.0 -142.973735 39.431617 147.390037 -133.899218 59.354097 156.553002 145.823927 -87.490288 107.769274 169.382882 -20.035437 143.352849 -5.433768 5.264911 1.077842 -131.793341 -31.573151 113.813767 -0.327682 0.529888 0.186114 -152.560454 14.497039 105.27422 7.431997 -23.30116 -2.923946 -164.09185 1.529907 141.234833 0.000474 0.063839 0.020056 -0.009781 0.065672 -0.003771 -74.132069 -51.746829 -72.618337 -145.053289 7.087296 -144.083207 9.651699 34.836178 -11.199233 14.000503 -74.85146 25.083321 174.187553 -7.940118 -145.270431 -165.47625 -29.656739 -141.369244 -51.059793 -41.203951 -12.856726 153.509373 -52.899795 -138.517884 173.38583 -52.451368 -119.982148 177.27912 -48.325541 -103.304052 -7.904304 -24.807577 3.013399 77.899838 62.931063 -67.290732 0.021306 -1.72602 0.542654 -0.142151 0.000476 -0.323051 145.150951 11.996177 141.802937 124.391064 -29.360058 124.430567 -180.0 75.749642 -0.0 -180.0 75.749642 -0.0 -5.517287 5.185089 -70.178882 125.336154 33.837674 -40.9693 -180.0 75.749642 -0.0 -180.0 75.749642 -0.0 -4.059024 0.727339 -36.570238 -33.164401 -34.623643 41.626709
